<?xml version="1.0" encoding="utf-8"?>
<!-- Generator: Adobe Illustrator 27.5.0, SVG Export Plug-In . SVG Version: 6.00 Build 0)  -->
<svg version="1.1" xmlns="http://www.w3.org/2000/svg" xmlns:xlink="http://www.w3.org/1999/xlink" x="0px" y="0px"
	 viewBox="0 0 750 500" style="enable-background:new 0 0 750 500;" xml:space="preserve">
<g id="BACKGROUND">
	<rect style="fill:#A0C3FA;" width="750" height="500"/>
</g>
<g id="OBJECTS">
	<g>
		<g>
			<path style="fill:#3E3075;" d="M555.599,397.687c0.054-4.824-2.263-10.281,0.699-14.088c1.83-2.353,5.156-3.147,6.981-5.503
				c2.195-2.832,1.522-6.898,0.406-10.303c-1.116-3.405-2.588-6.993-1.653-10.452c1.94-7.178,12.872-9.346,13.956-16.702
				c0.629-4.268-2.534-8.576-1.37-12.73c0.995-3.551,4.691-5.488,7.26-8.133c2.381-2.452,3.901-5.831,3.732-9.245
				c-0.169-3.414-2.175-6.776-5.285-8.195c-3.11-1.419-7.201-0.583-9.222,2.174c-3.478,4.745-0.171,12.631-4.449,16.669
				c-3.676,3.47-10.721,1.619-13.692,5.709c-2.422,3.335-0.272,8.14-1.498,12.075c-1.345,4.318-6.213,6.329-10.569,7.547
				c-4.356,1.217-9.26,2.55-11.497,6.48c-3.13,5.499,0.648,13.326-3.155,18.383c-2.454,3.263-7.01,3.896-10.594,5.85
				c-6.108,3.332-9.237,10.977-8.009,17.826c1.228,6.849,6.338,12.669,12.65,15.596
				C531.241,415.721,555.418,413.871,555.599,397.687z"/>
		</g>
		<path style="fill:#50448B;" d="M580.069,315.24c-0.1-0.315-0.439-0.488-0.754-0.389l-3.948,1.259l4.101-7.346
			c0.162-0.29,0.058-0.655-0.231-0.816c-0.29-0.163-0.656-0.058-0.816,0.23l-4.851,8.688c0,0.001-0.001,0.001-0.001,0.002
			l-8.104,14.515l-0.576-4.136c-0.046-0.327-0.345-0.556-0.678-0.512c-0.328,0.046-0.557,0.35-0.512,0.678l0.794,5.708l-1.271,2.276
			l-1.215-7.283c-0.054-0.328-0.369-0.546-0.69-0.493c-0.327,0.055-0.548,0.363-0.493,0.69l1.463,8.763l-9.376,16.792l-1.803-7.251
			c-0.079-0.322-0.404-0.521-0.727-0.438c-0.322,0.08-0.518,0.405-0.438,0.727l2.112,8.494l-6.938,12.426l-3.9-16.549
			c-0.076-0.323-0.401-0.52-0.722-0.446c-0.322,0.076-0.522,0.399-0.446,0.722l4.201,17.827l-4.31,7.719l-4.969-20.671
			c-0.077-0.322-0.398-0.523-0.724-0.442c-0.322,0.077-0.521,0.401-0.442,0.724l5.272,21.935l-9.979,17.874l-4.169-18.476
			c-0.072-0.324-0.402-0.532-0.717-0.453c-0.323,0.072-0.526,0.394-0.453,0.717l4.463,19.781l-7.154,12.814
			c-0.162,0.29-0.059,0.655,0.23,0.816c0.093,0.052,0.193,0.077,0.292,0.077c0.211,0,0.415-0.111,0.524-0.308l9.024-16.162
			l12.899-1.16c0.33-0.029,0.573-0.321,0.544-0.651c-0.029-0.33-0.318-0.572-0.651-0.544l-12.083,1.087l1.811-3.243l15.832-1.666
			c0.33-0.034,0.569-0.33,0.534-0.659c-0.035-0.33-0.336-0.565-0.659-0.534l-14.991,1.577l7.616-13.64l17.882-2.627
			c0.328-0.048,0.555-0.354,0.507-0.681c-0.049-0.329-0.358-0.555-0.681-0.507l-16.97,2.493l8.235-14.75l7.713-1.632
			c0.324-0.068,0.531-0.387,0.463-0.711c-0.068-0.325-0.394-0.53-0.711-0.463l-6.689,1.415l1.469-2.63
			c0.001-0.001,0.001-0.002,0.002-0.003l7.517-13.463l9.489-2.951c0.316-0.099,0.493-0.435,0.396-0.751
			c-0.099-0.317-0.437-0.494-0.751-0.395l-8.284,2.576l12.934-23.165l5.168-1.648C579.996,315.893,580.17,315.556,580.069,315.24z"
			/>
	</g>
	<g>
		<path style="fill:#1B435E;" d="M533.048,424.196c18.157-0.045,36.402-7.94,48.843-21.165
			c12.441-13.225,20.564-29.94,26.757-47.008c-19.287,3.84-38.093,11.588-53.344,24.003
			C540.053,392.442,531.898,404.564,533.048,424.196z"/>
		<path style="fill:#2A607F;" d="M533.021,423.583c3.279-3.969,6.803-7.927,10.479-11.824v-20.355
			c0.272-0.327,0.547-0.654,0.83-0.979v20.458c2.099-2.208,4.244-4.394,6.415-6.55c0.025-0.033,0.053-0.061,0.087-0.086
			c1.891-1.877,3.801-3.731,5.72-5.556l1.665-20.945c0.291-0.219,0.591-0.426,0.883-0.642l-1.649,20.735
			c1.342-1.269,2.687-2.523,4.031-3.76l1.833-19.925c0.297-0.197,0.589-0.404,0.888-0.599l-1.811,19.688
			c2.69-2.463,5.37-4.857,8.008-7.164l2.358-17.53c0.302-0.16,0.599-0.327,0.902-0.484l-2.312,17.187
			c2.453-2.135,4.865-4.194,7.209-6.163c0.044-0.064,0.102-0.116,0.175-0.146c2.389-2.005,4.706-3.915,6.923-5.716l2.203-11.386
			c0.301-0.11,0.605-0.214,0.907-0.323l-2.108,10.896c1.095-0.886,2.161-1.741,3.199-2.569l1.951-9.379
			c0.302-0.1,0.606-0.197,0.909-0.295l-1.845,8.865c8.394-6.663,14.664-11.268,16.773-12.798c0.335-0.069,0.669-0.146,1.004-0.213
			c-0.084,0.233-0.173,0.464-0.258,0.697c-2.479,1.792-13.997,10.213-28.239,22.113l19.163-1.079
			c-0.147,0.287-0.299,0.57-0.449,0.856l-19.777,1.114c-3.768,3.164-7.711,6.561-11.716,10.135l24.958-0.106
			c-0.185,0.28-0.38,0.553-0.568,0.832l-24.992,0.106h-0.002c-0.089,0-0.168-0.034-0.236-0.083
			c-4.801,4.303-9.678,8.853-14.438,13.553h28.675c-0.274,0.277-0.544,0.558-0.824,0.83h-28.688
			c-3.128,3.108-6.199,6.279-9.158,9.484l23.181,1.303c-0.473,0.258-0.953,0.503-1.432,0.75l-22.407-1.26
			c-0.021-0.001-0.038-0.011-0.058-0.015c-2.708,2.956-5.316,5.94-7.783,8.928c-0.185,0.002-0.369,0.016-0.554,0.016
			C533.036,423.989,533.031,423.788,533.021,423.583z"/>
	</g>
	<path style="fill:#50448B;" d="M624.42,424.318c-9.376-17.54-27.861-29.478-49.14-29.478s-39.764,11.938-49.14,29.478H624.42z"/>
	<g>
		<path style="fill:#FFFFFF;" d="M651.903,233.126c2.917-3.981,3.383-9.617,1.157-14.022c-1.982-3.923-5.785-6.704-7.696-10.663
			c-2.872-5.952-0.874-13.077-2.104-19.571c-1.228-6.479-5.924-12.193-12.042-14.653c-6.118-2.46-13.463-1.586-18.833,2.24
			c-3.365,2.397-5.443,4.575-6.809,8.474c-1.365,3.899-1.368,8.148-0.93,12.256c1.075,10.086,4.758,19.882,10.594,28.178
			c2.204,3.133,4.851,6.161,8.396,7.612c2.901,1.187,6.128,1.208,9.262,1.211C639.005,234.195,645.796,233.12,651.903,233.126z"/>
		<g>
			<g>
				<polygon style="fill:#FFFFFF;" points="637.153,424.421 636.68,422.703 615.698,422.723 616.006,424.421 				"/>
				<path style="fill:#F7EEDA;" d="M636.68,422.703l-1.927-11.162l-8.119-0.127l-0.421,5.867c0,0-10.324,2.389-10.515,5.442
					L636.68,422.703z"/>
				<polygon style="fill:#ECC8A1;" points="635.14,413.784 626.599,411.907 626.363,415.189 626.363,415.189 635.656,416.773 				
					"/>
			</g>
			<g>
				<polygon style="fill:#FFFFFF;" points="584.789,424.421 584.721,422.703 563.735,422.723 563.642,424.421 				"/>
				<path style="fill:#F7EEDA;" d="M584.721,422.703l0.704-11.162l-8.089-0.127l-1.804,5.867c0,0-10.887,2.389-11.797,5.442
					L584.721,422.703z"/>
				<polygon style="fill:#ECC8A1;" points="585.284,413.784 577.185,411.907 576.175,415.189 576.175,415.189 585.095,416.773 				
					"/>
			</g>
			<path style="fill:#FFFFFF;" d="M632.096,269.578l-32.717-3.249c0,0-15.999,102.54-26.448,147.985h18.314l24.363-123.863
				l7.258,124.543h16.646c0.336-15.451-3.401-119.849-3.401-119.849C638.29,284.349,636.956,278.407,632.096,269.578z"/>
			<path style="fill:#FFE8CA;" d="M615.752,292.91l0.214-22.308l10.049,0.808c0.069,1.612,0.633,8.497,5.19,9.726l4.737,133.859
				h0.352l0.364-0.013l-5.065-143.124l1.774,0.143c-0.125-0.249-0.244-0.494-0.375-0.747l-33.957-2.729
				c-0.035,0.221-0.072,0.456-0.112,0.708l3.019,0.243c-0.197,1.481-1.086,7.082-3.42,8.849c-0.358,0.272-0.731,0.423-1.122,0.48
				c-0.039,0.244-0.077,0.484-0.118,0.734c0.59-0.042,1.151-0.251,1.672-0.645c2.608-1.976,3.513-7.87,3.703-9.361l9.714,0.781
				c-0.705,10.81,2.868,20.174,2.905,20.268 M626.737,271.468l4.138,0.333l0.304,8.585
				C627.414,279.151,626.826,273.078,626.737,271.468z M613.085,270.37l2.166,0.174v17.685
				C614.255,284.904,612.589,278.004,613.085,270.37z"/>
		</g>
		<g>
			<g>
				<g>
					<path style="fill:#FF8C69;" d="M570.906,215.52c0,0-2.562-6.096-3.513-6.901c-0.951-0.805-6.083-1.677-6.129-0.799
						c-0.046,0.878,2.81,1.567,2.81,1.567s-0.362,0.107-0.971,0.282c-1.57,0.452-4.779,1.357-7.649,2.053
						c-0.637,0.154-3.786-0.473-4.178,0.047c-0.304,0.403,0.571,0.662,0.393,0.715c0,0-0.532,0.018-0.945,0.036
						c-1.471,0.064-1.319,1.08,1.902,1.345c3.221,0.265,10.392,0.872,10.392,0.872l3.596,5.101L570.906,215.52z"/>
					<path style="fill:#222739;" d="M571.778,214.335l14.054,27.6c0,0,14.584-25.184,16.706-27.177
						c2.121-1.994,18.177-6.236,18.177-6.236h5.423c0,0,12.703,4.187,17.018,6.553l-11.059,54.504l-32.717-3.249l1.548-18.977
						c0,0-10.771,14.651-17.839,13.234c-7.068-1.418-20.323-41.894-20.323-41.894L571.778,214.335z"/>
					<g>
						<g>
							<path style="fill:#FF8C69;" d="M627.795,210.131l2.417-13.423c0,0,5.263,1.813,5.68-2.487
								c0.371-3.832-3.798-4.126-5.804-2.327c0,0,3.613-13.379-7.966-14.449c-11.579-1.071-11.7,14.789-11.747,18.627
								c-0.082,6.76,4.767,10.007,8.274,10.346l-0.273,4.145c0,0-0.28,3.628,3.128,3.766
								C626.047,214.514,627.795,210.131,627.795,210.131z"/>
						</g>
					</g>
					<g>
						<path style="fill:#0F2739;" d="M618.371,195.732c-0.024,0.003-0.048,0.003-0.072,0c-0.5-0.063-0.94-0.321-1.239-0.726
							c-0.299-0.405-0.415-0.902-0.327-1.397l0.52-2.924c0.027-0.155,0.176-0.259,0.331-0.231c0.156,0.027,0.259,0.176,0.231,0.331
							l-0.52,2.924c-0.06,0.34,0.019,0.681,0.224,0.959c0.206,0.278,0.507,0.455,0.85,0.497c0.157,0.019,0.268,0.163,0.248,0.319
							C618.602,195.616,618.497,195.716,618.371,195.732z"/>
					</g>
					<g>
						<path style="fill:#0F2739;" d="M613.893,189.054c-0.914-0.871,2.303-1.695,2.42-1.069
							C616.43,188.611,614.431,189.568,613.893,189.054z"/>
					</g>
					<g>
						<path style="fill:#0F2739;" d="M622.36,188.613c0.319,1.222-2.85,0.231-2.62-0.363
							C619.969,187.656,622.172,187.894,622.36,188.613z"/>
					</g>
					<g>
						<g>
							<path style="fill:#0F2739;" d="M622.119,191.793c0.096,0.68-0.378,1.31-1.058,1.406c-0.68,0.096-1.31-0.378-1.406-1.058
								c-0.096-0.68,0.378-1.31,1.058-1.406C621.393,190.639,622.022,191.113,622.119,191.793z"/>
						</g>
					</g>
					<g>
						<g>
							<path style="fill:#0F2739;" d="M615.998,191.721c0.096,0.68-0.378,1.31-1.058,1.406c-0.68,0.096-1.31-0.377-1.406-1.058
								c-0.096-0.68,0.378-1.31,1.058-1.406C615.272,190.566,615.901,191.04,615.998,191.721z"/>
						</g>
					</g>
					<g>
						<path style="fill:#0F2739;" d="M617.99,197.757c-0.106,0.014-0.213,0.023-0.32,0.03c-0.158,0.008-0.293-0.112-0.301-0.269
							c-0.008-0.157,0.118-0.3,0.269-0.301c0.957-0.053,1.906-0.476,2.588-1.161c0.112-0.111,0.292-0.111,0.404-0.001
							c0.112,0.111,0.112,0.292,0.001,0.404C619.927,197.166,618.978,197.629,617.99,197.757z"/>
					</g>
					<g>
						<path style="fill:#0F2739;" d="M631.089,194.894c-0.02,0.003-0.04,0.003-0.061,0.001c-0.157-0.013-0.273-0.152-0.26-0.309
							c0.065-0.764,0.518-1.479,1.179-1.868c0.662-0.388,1.507-0.433,2.206-0.117c0.143,0.065,0.208,0.235,0.143,0.378
							c-0.066,0.144-0.235,0.206-0.378,0.143c-0.533-0.242-1.176-0.208-1.681,0.088c-0.505,0.297-0.849,0.842-0.899,1.424
							C631.325,194.771,631.219,194.877,631.089,194.894z"/>
					</g>
					<g>
						<path style="fill:#222739;" d="M618.648,206.418c4.138,0.178,6.781-1.727,6.781-1.727s-1.593,2.599-6.859,2.906
							L618.648,206.418z"/>
					</g>
					<g>
						<path style="fill:#FFC0B0;" d="M622.144,196.239c0.148,0.48,0.657,0.75,1.137,0.603c0.481-0.148,0.75-0.657,0.603-1.137
							c-0.148-0.48-0.657-0.75-1.137-0.602C622.267,195.249,621.997,195.759,622.144,196.239z"/>
					</g>
					<g>
						<path style="fill:#FFC0B0;" d="M611.987,195.972c0.148,0.48,0.657,0.75,1.138,0.603c0.48-0.148,0.75-0.657,0.602-1.137
							c-0.148-0.48-0.657-0.75-1.138-0.602C612.109,194.983,611.839,195.492,611.987,195.972z"/>
					</g>
				</g>
			</g>
		</g>
		<path style="fill:#222739;" d="M617.368,207.401l12.64-0.403l-0.943,4.353c0,0-3.732,4.136-7.551,3.814
			c-3.818-0.321-4.409-3.086-4.409-3.086L617.368,207.401z"/>
		<g>
			<path style="fill:#51408A;" d="M599.965,245.037c-0.158,0-0.286-0.128-0.286-0.286v-3.383c-0.737-0.35-3.432-1.868-3.499-5.392
				c-0.084-4.379,5.602-15.49,5.845-15.961c0.073-0.14,0.245-0.195,0.386-0.124c0.141,0.072,0.196,0.245,0.124,0.385
				c-0.059,0.114-5.864,11.453-5.782,15.689c0.07,3.669,3.182,4.899,3.314,4.949c0.111,0.042,0.185,0.149,0.185,0.268v3.569
				C600.251,244.909,600.123,245.037,599.965,245.037z"/>
		</g>
		<g>
			<path style="fill:#FF8C69;" d="M632.604,268.739l-2.6,0.747c0,0-5.294,1.264-6.078,2.153c-0.784,0.889-4.831,3.973-4.261,4.214
				c0.371,0.157,2.798-0.667,4.452-1.264c-0.257,0.336-0.531,0.702-0.827,1.106c-0.421,0.576-4.73,6.944-3.837,7.568
				c0.466,0.599,2.385-0.922,2.385-0.922s0.732,1.771,3.579,0.257c0.213-0.113,0.393-0.238,0.547-0.37
				c0.528-0.324,0.884-0.722,0.884-0.722s0.147,0.808,0.692,1.178c0.545,0.37,1.801-1.034,1.801-1.034l6.656-8.855L632.604,268.739z
				"/>
		</g>
		<path style="fill:#222739;" d="M637.647,236.168l10.765,15.459l-17.179,15.883l3.371,9.76c0,0,28.392-17.307,28.259-22.722
			c-0.133-5.415-17.531-38.281-19.708-39.474L637.647,236.168z"/>
	</g>
	<g>
		<g>
			<path style="fill:#1B435E;" d="M174.365,404.595c-0.621-6.842,2.052-14.85-2.582-19.921c-2.864-3.133-7.674-3.886-10.532-7.025
				c-3.436-3.773-2.94-9.621-1.74-14.581c1.2-4.96,2.884-10.22,1.166-15.025c-3.565-9.972-19.329-11.814-21.698-22.136
				c-1.374-5.988,2.63-12.461,0.508-18.226c-1.814-4.928-7.279-7.261-11.225-10.727c-3.657-3.212-6.196-7.837-6.341-12.703
				c-0.146-4.866,2.323-9.865,6.578-12.23c4.255-2.366,10.157-1.64,13.338,2.046c5.473,6.343,1.669,17.911,8.197,23.162
				c5.61,4.511,15.403,1.088,20.081,6.56c3.814,4.461,1.305,11.525,3.49,16.972c2.397,5.978,9.534,8.283,15.855,9.52
				c6.321,1.237,13.433,2.575,17.053,7.902c5.065,7.453,0.585,18.991,6.555,25.74c3.852,4.355,10.392,4.739,15.7,7.109
				c9.048,4.04,14.352,14.54,13.382,24.402c-0.969,9.861-7.567,18.701-16.198,23.568C210.98,427.448,176.449,427.55,174.365,404.595
				z"/>
		</g>
		<path style="fill:#2A607F;" d="M224.661,419.591l-11.657-17.464l4.116-28.682c0.047-0.328-0.181-0.632-0.508-0.679
			c-0.326-0.04-0.632,0.18-0.679,0.509l-3.926,27.358l-16.608-24.883l5.025-31.832c0.052-0.327-0.172-0.635-0.499-0.686
			c-0.329-0.055-0.635,0.171-0.687,0.499l-4.822,30.547l-7.405-11.095l3.967-25.879c0.05-0.327-0.175-0.634-0.503-0.684
			c-0.324-0.053-0.634,0.174-0.684,0.502l-3.768,24.581l-11.671-17.485l2.055-12.396c0.054-0.326-0.167-0.636-0.494-0.689
			c-0.326-0.054-0.636,0.167-0.69,0.494l-1.845,11.132l-15.612-23.39l1.095-12.693c0.029-0.33-0.216-0.621-0.546-0.649
			c-0.339-0.044-0.622,0.216-0.649,0.546l-0.966,11.199l-2.512-3.763l0.488-8.278c0.02-0.331-0.233-0.614-0.564-0.634
			c-0.325-0.036-0.614,0.232-0.634,0.564l-0.395,6.693l-21.432-32.109c-0.184-0.276-0.557-0.35-0.832-0.166
			c-0.276,0.184-0.35,0.557-0.166,0.832l7.01,10.502l-6.374-1.488c-0.325-0.075-0.645,0.125-0.721,0.447
			c-0.075,0.323,0.125,0.645,0.448,0.721l7.621,1.779l21.385,32.039l-12.672-2.862c-0.323-0.08-0.645,0.129-0.718,0.453
			c-0.073,0.323,0.13,0.645,0.453,0.717l13.903,3.141l14.943,22.388l-10.211-1.326c-0.321-0.048-0.629,0.188-0.672,0.517
			c-0.042,0.328,0.189,0.63,0.518,0.672l11.249,1.461l13.707,20.536l-24.887-1.658c-0.339-0.009-0.617,0.229-0.639,0.559
			c-0.022,0.331,0.228,0.616,0.559,0.639l25.807,1.72l12.692,19.016l-21.95-0.558c-0.301,0.006-0.607,0.253-0.615,0.584
			c-0.009,0.332,0.253,0.607,0.585,0.615l22.795,0.58l3.278,4.911l-17.758-0.185h-0.006c-0.329,0-0.597,0.265-0.6,0.594
			c-0.003,0.331,0.263,0.603,0.594,0.605l18.577,0.193l14.709,22.036c0.116,0.174,0.306,0.267,0.499,0.267
			c0.115,0,0.23-0.032,0.332-0.101C224.771,420.24,224.845,419.867,224.661,419.591z"/>
	</g>
	<path style="fill:#3E3075;" d="M208.92,425.004c-21.888-0.055-43.883-9.572-58.881-25.515
		c-14.997-15.943-24.79-36.092-32.256-56.668c23.251,4.629,45.922,13.969,64.307,28.936S210.306,401.337,208.92,425.004z"/>
	<path style="fill:#50448B;" d="M208.953,424.265c-3.953-4.784-8.202-9.556-12.633-14.254v-24.538c-0.328-0.395-0.66-0.789-1-1.181
		v24.662c-2.531-2.661-5.116-5.297-7.734-7.897c-0.03-0.04-0.064-0.074-0.105-0.104c-2.28-2.263-4.582-4.498-6.895-6.698
		l-2.008-25.25c-0.35-0.264-0.712-0.513-1.065-0.774l1.987,24.996c-1.618-1.53-3.239-3.041-4.859-4.533l-2.21-24.02
		c-0.359-0.238-0.71-0.487-1.071-0.722l2.183,23.734c-3.242-2.969-6.473-5.855-9.653-8.637l-2.843-21.132
		c-0.364-0.192-0.722-0.394-1.087-0.583l2.787,20.719c-2.957-2.574-5.865-5.056-8.691-7.429c-0.053-0.077-0.123-0.139-0.21-0.176
		c-2.88-2.417-5.673-4.719-8.345-6.891l-2.656-13.726c-0.363-0.133-0.729-0.258-1.093-0.389l2.541,13.135
		c-1.32-1.068-2.605-2.099-3.856-3.097l-2.353-11.306c-0.365-0.121-0.73-0.238-1.096-0.356l2.224,10.687
		c-10.119-8.033-17.677-13.584-20.219-15.428c-0.404-0.083-0.807-0.176-1.211-0.257c0.102,0.28,0.209,0.56,0.311,0.84
		c2.989,2.161,16.873,12.312,34.042,26.657l-23.102-1.301c0.178,0.346,0.361,0.688,0.541,1.032l23.841,1.342
		c4.542,3.814,9.295,7.909,14.124,12.217l-30.087-0.128c0.223,0.338,0.459,0.667,0.685,1.003l30.128,0.128h0.002
		c0.108,0,0.202-0.042,0.284-0.1c5.787,5.188,11.667,10.673,17.406,16.338h-34.568c0.33,0.334,0.656,0.672,0.993,1h34.583
		c3.771,3.747,7.472,7.569,11.04,11.433l-27.945,1.571c0.57,0.311,1.148,0.606,1.726,0.904l27.012-1.519
		c0.025-0.001,0.046-0.013,0.07-0.018c3.265,3.564,6.408,7.16,9.383,10.763c0.223,0.003,0.445,0.019,0.668,0.02
		C208.935,424.755,208.941,424.513,208.953,424.265z"/>
	<path style="fill:#2A607F;" d="M212.249,424.318c-9.376-17.54-27.861-29.478-49.14-29.478c-21.279,0-39.764,11.938-49.14,29.478
		H212.249z"/>
	
		<ellipse transform="matrix(0.9224 -0.3863 0.3863 0.9224 -47.1159 77.8121)" style="fill:#FFB600;" cx="170.061" cy="156.144" rx="15.325" ry="15.325"/>
	<g>
		<g>
			<path style="fill:#CAE9EF;" d="M587.955,121.075h-20.269c-0.414,0-0.75-0.336-0.75-0.75V108.27c0-0.414,0.336-0.75,0.75-0.75
				h20.269c0.414,0,0.75,0.336,0.75,0.75v12.055C588.705,120.739,588.369,121.075,587.955,121.075z M568.436,119.575h18.769V109.02
				h-18.769V119.575z"/>
		</g>
		<g>
			<path style="fill:#CAE9EF;" d="M560.311,121.075c-0.12,0-0.241-0.029-0.352-0.087c-0.245-0.131-0.398-0.386-0.398-0.663V108.27
				c0-0.277,0.153-0.532,0.398-0.663c0.246-0.129,0.542-0.114,0.772,0.042l7.375,5c0.206,0.14,0.329,0.372,0.329,0.621v2.055
				c0,0.249-0.123,0.481-0.329,0.621l-7.375,5C560.605,121.032,560.458,121.075,560.311,121.075z M561.061,109.685v9.225
				l5.875-3.982v-1.26L561.061,109.685z"/>
		</g>
		<g>
			<path style="fill:#CAE9EF;" d="M567.754,133.107c-0.11,0-0.222-0.025-0.326-0.074c-0.336-0.163-0.502-0.548-0.389-0.903
				l3.836-12.032c0.126-0.395,0.55-0.608,0.942-0.487c0.394,0.126,0.613,0.548,0.487,0.942l-2.232,6.998l5.124-7.644
				c0.23-0.344,0.694-0.436,1.041-0.205c0.344,0.23,0.436,0.696,0.205,1.041l-8.066,12.032
				C568.234,132.989,567.997,133.107,567.754,133.107z"/>
		</g>
		<g>
			<path style="fill:#CAE9EF;" d="M587.886,133.107c-0.243,0-0.479-0.118-0.623-0.332l-8.065-12.032
				c-0.23-0.345-0.139-0.811,0.205-1.041c0.347-0.23,0.812-0.139,1.041,0.205l5.123,7.644l-2.231-6.998
				c-0.126-0.395,0.093-0.816,0.487-0.942c0.393-0.123,0.816,0.093,0.942,0.487l3.835,12.032c0.113,0.355-0.053,0.741-0.389,0.903
				C588.108,133.082,587.996,133.107,587.886,133.107z"/>
		</g>
		<g>
			<path style="fill:#CAE9EF;" d="M569.71,108.921c-4.885,0-8.859-3.975-8.859-8.859c0-4.885,3.975-8.859,8.859-8.859
				c4.885,0,8.859,3.975,8.859,8.859C578.57,104.947,574.595,108.921,569.71,108.921z M569.71,92.703
				c-4.058,0-7.359,3.302-7.359,7.359c0,4.058,3.302,7.359,7.359,7.359c4.058,0,7.359-3.302,7.359-7.359
				C577.07,96.004,573.768,92.703,569.71,92.703z"/>
		</g>
		<g>
			<path style="fill:#CAE9EF;" d="M569.71,104.921c-2.68,0-4.859-2.18-4.859-4.859c0-2.68,2.18-4.859,4.859-4.859
				c2.68,0,4.859,2.18,4.859,4.859C574.57,102.742,572.39,104.921,569.71,104.921z M569.71,96.703c-1.853,0-3.359,1.507-3.359,3.359
				c0,1.853,1.507,3.359,3.359,3.359c1.853,0,3.359-1.507,3.359-3.359C573.07,98.209,571.563,96.703,569.71,96.703z"/>
		</g>
		<g>
			<path style="fill:#CAE9EF;" d="M585.93,108.921c-4.885,0-8.858-3.975-8.858-8.859c0-4.885,3.974-8.859,8.858-8.859
				c4.885,0,8.859,3.975,8.859,8.859C594.789,104.947,590.815,108.921,585.93,108.921z M585.93,92.703
				c-4.058,0-7.358,3.302-7.358,7.359c0,4.058,3.301,7.359,7.358,7.359c4.058,0,7.359-3.302,7.359-7.359
				C593.289,96.004,589.988,92.703,585.93,92.703z"/>
		</g>
		<g>
			<path style="fill:#CAE9EF;" d="M585.93,104.921c-2.679,0-4.858-2.18-4.858-4.859c0-2.68,2.18-4.859,4.858-4.859
				c2.68,0,4.859,2.18,4.859,4.859C590.789,102.742,588.61,104.921,585.93,104.921z M585.93,96.703
				c-1.852,0-3.358,1.507-3.358,3.359c0,1.853,1.507,3.359,3.358,3.359c1.852,0,3.359-1.507,3.359-3.359
				C589.289,98.209,587.782,96.703,585.93,96.703z"/>
		</g>
		<g>
			<path style="fill:#CAE9EF;" d="M571.182,112.921c-0.779,0-1.414-0.634-1.414-1.413c0-0.779,0.635-1.413,1.414-1.413
				s1.413,0.634,1.413,1.413C572.595,112.287,571.961,112.921,571.182,112.921z M571.182,111.421c-0.048,0-0.087,0.039-0.087,0.087
				c0,0.096,0.173,0.096,0.173,0C571.268,111.46,571.23,111.421,571.182,111.421z"/>
		</g>
	</g>
	<g>
		<path style="fill:#222739;" d="M584.277,204.685h-64.994c-1.657,0-3-1.343-3-3v-41.091c0-1.657,1.343-3,3-3h64.994
			c1.657,0,3,1.343,3,3v41.091C587.277,203.342,585.934,204.685,584.277,204.685z"/>
		<g>
			<path style="fill:#FFB600;" d="M536.026,194.542h-11.965c-0.414,0-0.75-0.336-0.75-0.75c0-0.414,0.336-0.75,0.75-0.75h11.965
				c0.414,0,0.75,0.336,0.75,0.75C536.776,194.207,536.44,194.542,536.026,194.542z"/>
		</g>
		<polygon style="fill:#FFFFFF;" points="546.191,187.738 546.191,170.172 557.368,178.955 		"/>
		<g>
			<path style="fill:#51408A;" d="M579.498,194.542h-43.472c-0.414,0-0.75-0.336-0.75-0.75c0-0.414,0.336-0.75,0.75-0.75h43.472
				c0.414,0,0.75,0.336,0.75,0.75C580.248,194.207,579.912,194.542,579.498,194.542z"/>
		</g>
		<g>
			<path style="fill:#FFFFFF;" d="M536.901,193.793c0,0.483-0.392,0.875-0.875,0.875c-0.483,0-0.875-0.392-0.875-0.875
				c0-0.483,0.392-0.875,0.875-0.875C536.509,192.918,536.901,193.309,536.901,193.793z"/>
			<path style="fill:#FFFBF6;" d="M536.026,195.167c-0.758,0-1.375-0.617-1.375-1.375s0.617-1.375,1.375-1.375
				c0.758,0,1.375,0.617,1.375,1.375S536.784,195.167,536.026,195.167z M536.026,193.417c-0.207,0-0.375,0.168-0.375,0.375
				c0,0.206,0.168,0.375,0.375,0.375c0.207,0,0.375-0.169,0.375-0.375C536.401,193.586,536.233,193.417,536.026,193.417z"/>
		</g>
		<g>
			<g>
				<g>
					<g>
						<path style="fill:#FFFFFF;" d="M558.433,200.505c-0.074,0-0.149-0.017-0.219-0.05c-0.172-0.084-0.281-0.259-0.281-0.45v-1.857
							c0-0.191,0.109-0.366,0.281-0.45c0.174-0.082,0.377-0.06,0.527,0.057l1.182,0.929c0.121,0.096,0.191,0.24,0.191,0.393
							c0,0.153-0.07,0.298-0.191,0.394l-1.182,0.929C558.652,200.468,558.544,200.505,558.433,200.505z"/>
					</g>
					<g>
						<path style="fill:#FFFFFF;" d="M560.368,200.505c-0.276,0-0.5-0.224-0.5-0.5v-1.857c0-0.276,0.224-0.5,0.5-0.5
							c0.276,0,0.5,0.224,0.5,0.5v1.857C560.868,200.281,560.644,200.505,560.368,200.505z"/>
					</g>
				</g>
				<g>
					<g>
						<path style="fill:#FFFFFF;" d="M545.125,200.505c-0.11,0-0.22-0.036-0.31-0.107l-1.181-0.929
							c-0.12-0.095-0.19-0.239-0.19-0.393c0-0.153,0.07-0.298,0.19-0.393l1.181-0.929c0.15-0.12,0.357-0.141,0.528-0.058
							c0.172,0.084,0.281,0.259,0.281,0.45v1.857c0,0.191-0.109,0.366-0.281,0.45C545.274,200.488,545.199,200.505,545.125,200.505z
							"/>
					</g>
					<g>
						<path style="fill:#FFFFFF;" d="M543.191,200.505c-0.276,0-0.5-0.224-0.5-0.5v-1.857c0-0.276,0.224-0.5,0.5-0.5
							c0.276,0,0.5,0.224,0.5,0.5v1.857C543.691,200.281,543.468,200.505,543.191,200.505z"/>
					</g>
				</g>
			</g>
			<g>
				<g>
					<path style="fill:#FFFFFF;" d="M550.983,200.505c-0.276,0-0.5-0.224-0.5-0.5v-1.857c0-0.276,0.224-0.5,0.5-0.5
						c0.276,0,0.5,0.224,0.5,0.5v1.857C551.483,200.281,551.26,200.505,550.983,200.505z"/>
				</g>
				<g>
					<path style="fill:#FFFFFF;" d="M552.576,200.505c-0.276,0-0.5-0.224-0.5-0.5v-1.857c0-0.276,0.224-0.5,0.5-0.5
						c0.276,0,0.5,0.224,0.5,0.5v1.857C553.076,200.281,552.852,200.505,552.576,200.505z"/>
				</g>
			</g>
		</g>
	</g>
	<g>
		
			<ellipse transform="matrix(0.2284 -0.9736 0.9736 0.2284 -102.7014 289.9372)" style="fill:#FFFFFF;" cx="131.57" cy="209.763" rx="34.233" ry="34.233"/>
		<g>
			<g>
				<path style="fill:#51408A;" d="M125.432,213.085c0,1.942-1.86,3.88-4.155,4.329c-2.295,0.449-4.155-0.762-4.155-2.704
					c0-1.942,1.86-3.88,4.155-4.329C123.572,209.933,125.432,211.143,125.432,213.085z"/>
				<path style="fill:#51408A;" d="M120.339,218.257c-1.051,0-2.013-0.314-2.736-0.909c-0.794-0.653-1.231-1.59-1.231-2.638
					c0-2.317,2.091-4.543,4.761-5.065c1.46-0.286,2.852,0.007,3.819,0.804c0.793,0.653,1.23,1.59,1.23,2.637
					c0,2.317-2.091,4.543-4.761,5.065C121.055,218.222,120.692,218.257,120.339,218.257z M122.219,211.038
					c-0.257,0-0.525,0.026-0.798,0.08c-1.923,0.376-3.549,2.021-3.549,3.593c0,0.6,0.237,1.111,0.684,1.48
					c0.62,0.51,1.558,0.688,2.577,0.488c1.924-0.376,3.549-2.021,3.549-3.593c0-0.6-0.236-1.11-0.684-1.479
					C123.546,211.233,122.921,211.038,122.219,211.038z"/>
			</g>
			<g>
				<path style="fill:#51408A;" d="M141.828,222.942c0,1.942-1.86,3.88-4.155,4.329s-4.155-0.762-4.155-2.704
					c0-1.942,1.86-3.88,4.155-4.329C139.968,219.79,141.828,221,141.828,222.942z"/>
				<path style="fill:#51408A;" d="M136.736,228.115c-1.052,0-2.014-0.314-2.738-0.91c-0.793-0.653-1.23-1.59-1.23-2.637
					c0-2.317,2.091-4.543,4.761-5.065c1.462-0.283,2.852,0.008,3.818,0.803c0.793,0.653,1.23,1.59,1.23,2.637
					c0,2.318-2.091,4.543-4.761,5.066C137.451,228.08,137.089,228.115,136.736,228.115z M138.616,220.895
					c-0.257,0-0.525,0.026-0.799,0.08c-1.924,0.376-3.549,2.021-3.549,3.593c0,0.6,0.236,1.11,0.684,1.479
					c0.619,0.511,1.558,0.688,2.578,0.489c1.923-0.376,3.548-2.023,3.548-3.594c0-0.599-0.236-1.11-0.684-1.479
					C139.941,221.09,139.317,220.895,138.616,220.895z"/>
			</g>
			<g>
				<path style="fill:#51408A;" d="M141.823,223.696L141.823,223.696c-0.415,0-0.75-0.336-0.75-0.75l0.007-22.498l-14.893-8.961
					l-0.007,21.596c0,0.414-0.336,0.75-0.75,0.75l0,0c-0.415,0-0.75-0.336-0.75-0.75l0.007-22.922c0-0.271,0.145-0.52,0.381-0.653
					c0.235-0.132,0.525-0.128,0.756,0.011l16.392,9.863c0.226,0.136,0.363,0.38,0.363,0.643l-0.007,22.922
					C142.573,223.36,142.237,223.696,141.823,223.696z"/>
			</g>
			<g>
				<path style="fill:#51408A;" d="M141.828,206.044c-0.132,0-0.265-0.034-0.386-0.107l-16.396-9.857
					c-0.355-0.213-0.47-0.674-0.256-1.029c0.213-0.355,0.674-0.472,1.029-0.256l16.396,9.857c0.355,0.213,0.47,0.674,0.256,1.029
					C142.33,205.915,142.082,206.044,141.828,206.044z"/>
			</g>
		</g>
	</g>
	<g>
		<path style="fill:#CAE9EF;" d="M179.565,261.861h-1.942v-4.016c0-3.251-2.645-5.896-5.896-5.896c-3.251,0-5.895,2.645-5.895,5.896
			v4.016h-1.942c-0.414,0-0.75,0.336-0.75,0.75v14.717c0,0.414,0.336,0.75,0.75,0.75h15.676c0.414,0,0.75-0.336,0.75-0.75v-14.717
			C180.315,262.197,179.979,261.861,179.565,261.861z M168.832,257.845c0-1.597,1.299-2.896,2.895-2.896
			c1.597,0,2.896,1.299,2.896,2.896v4.016h-5.791V257.845z M178.815,276.578H164.64v-13.217h14.176V276.578z"/>
		<path style="fill:#CAE9EF;" d="M170.712,269.665v2.587c0,0.553,0.448,1,1,1c0.552,0,1-0.447,1-1v-2.587
			c0.399-0.304,0.661-0.779,0.661-1.318c0-0.916-0.745-1.661-1.661-1.661c-0.915,0-1.661,0.745-1.661,1.661
			C170.052,268.887,170.313,269.361,170.712,269.665z"/>
	</g>
	<g>
		<path style="fill:#222739;" d="M422.146,424.233H203.247c-5.523,0-10-4.477-10-10V111.071c0-5.523,4.477-10,10-10h218.899V424.233
			z"/>
		<rect x="216.569" y="115.106" style="fill:#FFFFFF;" width="195.319" height="295.091"/>
		<g>
			<g>
				<path style="fill:#FFE8CA;" d="M226.595,200.155c-0.829,0-1.5-0.671-1.5-1.5v-70.169c0-0.829,0.671-1.5,1.5-1.5
					s1.5,0.671,1.5,1.5v70.169C228.095,199.483,227.423,200.155,226.595,200.155z"/>
			</g>
			<g>
				<path style="fill:#FFE8CA;" d="M226.595,241.409c-0.829,0-1.5-0.671-1.5-1.5v-14.927c0-0.829,0.671-1.5,1.5-1.5
					s1.5,0.671,1.5,1.5v14.927C228.095,240.737,227.423,241.409,226.595,241.409z"/>
			</g>
			<g>
				<path style="fill:#FFE8CA;" d="M226.59,248.53c-0.39,0-0.78-0.16-1.06-0.44c-0.07-0.07-0.13-0.14-0.18-0.23
					c-0.06-0.08-0.1-0.16-0.14-0.26c-0.04-0.09-0.07-0.18-0.09-0.28c-0.02-0.09-0.02-0.19-0.02-0.29s0-0.2,0.02-0.29
					c0.02-0.1,0.05-0.19,0.09-0.28c0.04-0.09,0.08-0.18,0.14-0.26c0.05-0.08,0.11-0.16,0.18-0.23c0.56-0.56,1.57-0.56,2.13,0
					c0.27,0.28,0.44,0.67,0.44,1.06c0,0.4-0.17,0.78-0.44,1.06C227.38,248.37,226.99,248.53,226.59,248.53z"/>
			</g>
			<g>
				<path style="fill:#FFE8CA;" d="M226.595,330.996c-0.829,0-1.5-0.672-1.5-1.5v-52.277c0-0.828,0.671-1.5,1.5-1.5
					s1.5,0.672,1.5,1.5v52.277C228.095,330.324,227.423,330.996,226.595,330.996z"/>
			</g>
			<g>
				<path style="fill:#FFE8CA;" d="M226.595,395.958c-0.829,0-1.5-0.672-1.5-1.5v-45.401c0-0.828,0.671-1.5,1.5-1.5
					s1.5,0.672,1.5,1.5v45.401C228.095,395.286,227.423,395.958,226.595,395.958z"/>
			</g>
			<g>
				<path style="fill:#FFE8CA;" d="M235.482,372.403c-0.829,0-1.5-0.672-1.5-1.5V233.307c0-0.829,0.671-1.5,1.5-1.5
					c0.829,0,1.5,0.671,1.5,1.5v137.597C236.982,371.731,236.311,372.403,235.482,372.403z"/>
			</g>
			<g>
				<path style="fill:#FFE8CA;" d="M235.482,184.374c-0.829,0-1.5-0.671-1.5-1.5v-33.199c0-0.829,0.671-1.5,1.5-1.5
					c0.829,0,1.5,0.671,1.5,1.5v33.199C236.982,183.703,236.311,184.374,235.482,184.374z"/>
			</g>
			<g>
				<path style="fill:#FFE8CA;" d="M244.463,165.274c-0.829,0-1.5-0.671-1.5-1.5v-34.91c0-0.829,0.671-1.5,1.5-1.5
					c0.829,0,1.5,0.671,1.5,1.5v34.91C245.963,164.602,245.292,165.274,244.463,165.274z"/>
			</g>
			<g>
				<path style="fill:#FFE8CA;" d="M244.463,264.152c-0.829,0-1.5-0.672-1.5-1.5v-54.096c0-0.829,0.671-1.5,1.5-1.5
					c0.829,0,1.5,0.671,1.5,1.5v54.096C245.963,263.48,245.292,264.152,244.463,264.152z"/>
			</g>
			<g>
				<path style="fill:#FFE8CA;" d="M244.463,395.958c-0.829,0-1.5-0.672-1.5-1.5V357.17c0-0.828,0.671-1.5,1.5-1.5
					c0.829,0,1.5,0.672,1.5,1.5v37.288C245.963,395.286,245.292,395.958,244.463,395.958z"/>
			</g>
		</g>
		<path style="fill:#51408A;" d="M464.855,424.233H263.956c-5.523,0-10-4.477-10-10V111.071c0-5.523,4.477-10,10-10h200.899
			c1.657,0,3,1.343,3,3v317.162C467.855,422.889,466.512,424.233,464.855,424.233z"/>
		<g>
			<path style="fill:#453382;" d="M432.855,404.733H288.956c-0.829,0-1.5-0.672-1.5-1.5c0-6.893-5.607-12.5-12.5-12.5
				c-0.829,0-1.5-0.672-1.5-1.5V136.071c0-0.828,0.671-1.5,1.5-1.5c6.893,0,12.5-5.608,12.5-12.5c0-0.828,0.671-1.5,1.5-1.5h143.899
				c0.828,0,1.5,0.672,1.5,1.5c0,6.892,5.607,12.5,12.5,12.5c0.828,0,1.5,0.672,1.5,1.5v253.162c0,0.828-0.672,1.5-1.5,1.5
				c-6.893,0-12.5,5.607-12.5,12.5C434.355,404.061,433.684,404.733,432.855,404.733z M290.385,401.733h141.043
				c0.709-7.352,6.576-13.219,13.928-13.928V137.499c-7.352-0.709-13.219-6.576-13.928-13.928H290.385
				c-0.71,7.351-6.576,13.219-13.928,13.928v250.307C283.809,388.514,289.675,394.381,290.385,401.733z"/>
		</g>
		<g>
			<path style="fill:#453382;" d="M422.145,371.301H299.666c-1.657,0-3-1.343-3-3c0-1.657,1.343-3,3-3h122.479c1.657,0,3,1.343,3,3
				C425.145,369.959,423.803,371.301,422.145,371.301z"/>
		</g>
		<g>
			<path style="fill:#453382;" d="M394.625,386.981h-67.438c-1.657,0-3-1.343-3-3c0-1.657,1.343-3,3-3h67.438c1.657,0,3,1.343,3,3
				C397.625,385.638,396.282,386.981,394.625,386.981z"/>
		</g>
		<path style="fill:#453382;" d="M422.921,212.855c-10.965,5.224-23.999,5.932-35.465,1.926c-5.737-2.004-11.046-5.176-15.586-9.212
			c-6.298-5.599-15.63-5.599-21.929,0c-4.541,4.036-9.85,7.208-15.586,9.212c-11.465,4.005-24.5,3.298-35.465-1.926
			c0,0-6.475,45.656,7.209,81.211c16.565,43.044,54.807,54.09,54.807,54.09s38.242-11.046,54.807-54.09
			C429.396,258.51,422.921,212.855,422.921,212.855z"/>
		<g>
			<g>
				<path style="fill:#FFFFFF;" d="M361.057,315.929c-0.358,0-0.718-0.096-1.041-0.293c-0.793-0.483-1.148-1.449-0.858-2.331
					l15.777-48.037c0.344-1.048,1.473-1.618,2.524-1.276c1.05,0.345,1.621,1.475,1.276,2.524l-13.116,39.934l41.345-41.961
					c0.776-0.787,2.041-0.797,2.828-0.022s0.797,2.042,0.021,2.828l-47.332,48.037C362.095,315.725,361.578,315.929,361.057,315.929
					z"/>
			</g>
			<g>
				<path style="fill:#FFFFFF;" d="M361.058,315.929c-0.524,0-1.042-0.205-1.429-0.601l-47.061-48.037
					c-0.773-0.789-0.76-2.055,0.029-2.828c0.788-0.772,2.055-0.762,2.828,0.029l41.122,41.975l-12.9-39.961
					c-0.339-1.051,0.238-2.179,1.289-2.518c1.05-0.339,2.178,0.237,2.518,1.289l15.507,48.037c0.285,0.883-0.075,1.846-0.869,2.326
					C361.771,315.834,361.413,315.929,361.058,315.929z"/>
			</g>
			<g>
				<path style="fill:#FFFFFF;" d="M361.058,315.929c-0.522,0-1.039-0.204-1.425-0.597l-47.332-48.037
					c-0.775-0.786-0.766-2.053,0.021-2.828c0.787-0.775,2.053-0.766,2.829,0.022l41.345,41.961l-13.115-39.934
					c-0.345-1.05,0.227-2.18,1.276-2.524c1.045-0.343,2.179,0.227,2.524,1.276l15.777,48.037c0.29,0.882-0.065,1.848-0.858,2.331
					C361.776,315.833,361.415,315.929,361.058,315.929z"/>
			</g>
			<g>
				<g>
					<path style="fill:#FFFFFF;" d="M345.28,267.892h-31.555c-0.784,0-1.496-0.458-1.82-1.172c-0.325-0.714-0.203-1.551,0.313-2.142
						l15.777-18.107c0.76-0.872,2.256-0.872,3.016,0l15.777,18.107c0.515,0.591,0.637,1.428,0.313,2.142
						C346.776,267.434,346.064,267.892,345.28,267.892z M318.121,263.892h22.764l-11.382-13.063L318.121,263.892z"/>
				</g>
				<g>
					<path style="fill:#FFFFFF;" d="M376.834,267.892H345.28c-0.784,0-1.496-0.458-1.82-1.172c-0.325-0.713-0.203-1.551,0.313-2.142
						l15.777-18.107c0.76-0.872,2.256-0.872,3.016,0l15.777,18.107c0.515,0.591,0.638,1.429,0.313,2.142
						C378.33,267.434,377.618,267.892,376.834,267.892z M349.675,263.892h22.764l-11.382-13.063L349.675,263.892z"/>
				</g>
				<g>
					<path style="fill:#FFFFFF;" d="M408.389,267.892h-31.555c-0.784,0-1.496-0.458-1.82-1.172
						c-0.325-0.714-0.203-1.551,0.313-2.142l15.777-18.107c0.76-0.872,2.256-0.872,3.016,0l15.777,18.107
						c0.515,0.591,0.638,1.428,0.313,2.142C409.885,267.434,409.173,267.892,408.389,267.892z M381.229,263.892h22.764
						l-11.382-13.063L381.229,263.892z"/>
				</g>
				<g>
					<path style="fill:#FFFFFF;" d="M392.611,249.785h-63.108c-1.105,0-2-0.895-2-2c0-1.104,0.895-2,2-2h63.108c1.104,0,2,0.896,2,2
						C394.611,248.889,393.716,249.785,392.611,249.785z"/>
				</g>
			</g>
		</g>
		<text transform="matrix(1 0 0 1 313.8163 160.0573)"><tspan x="0" y="0" style="fill:#FFFBF6; font-family:'Gilroy-ExtraBold'; font-size:25.4077px; letter-spacing:1;">PATENT</tspan><tspan x="20.352" y="23" style="fill:#FFFBF6; font-family:'Gilroy-ExtraBold'; font-size:25.4077px; letter-spacing:1;">LAW</tspan></text>
	</g>
	<g>
		<path style="fill:#222739;" d="M436.094,249.909l-6,174.324h34.761c1.657,0,3-1.343,3-3V249.909H436.094z"/>
		<path style="fill:#FFB600;" d="M541.382,424.233h-80.036c-5.523,0-10.392-4.477-10.875-10l-14.376-164.324
			c-0.483-5.523,3.602-10,9.125-10h80.036c5.523,0,10.392,4.477,10.875,10l14.376,164.324
			C550.99,419.755,546.904,424.233,541.382,424.233z"/>
		<g>
			<path style="fill:#FFD600;" d="M541.382,421.233h-80.036c-3.931,0-7.543-3.325-7.887-7.261l-14.377-164.325
				c-0.159-1.83,0.39-3.533,1.546-4.796c1.147-1.253,2.777-1.943,4.591-1.943h80.037c3.931,0,7.542,3.325,7.886,7.261
				l14.377,164.326c0.159,1.83-0.39,3.533-1.546,4.796C544.825,420.543,543.195,421.233,541.382,421.233z M445.219,244.909
				c-1.245,0-2.353,0.459-3.116,1.293c-0.773,0.845-1.139,2.006-1.028,3.271l14.377,164.326c0.258,2.945,2.957,5.435,5.894,5.435
				h80.036c1.245,0,2.353-0.459,3.116-1.294c0.773-0.844,1.139-2.006,1.028-3.271l-14.377-164.326
				c-0.258-2.946-2.956-5.435-5.894-5.435H445.219z"/>
		</g>
		<polygon style="fill:#E79700;" points="516.311,355.036 493.869,338.574 474.308,355.036 469.839,303.957 511.842,303.957 		"/>
		<g>
			<path style="fill:#FFD600;" d="M523.608,291.027c0.254,2.901-2.865,5.325-3.346,8.001c-0.498,2.768,1.481,6.529,0.291,8.952
				c-1.207,2.458-5.264,2.901-7.084,4.896c-1.821,1.995-1.905,6.09-4.239,7.513c-2.301,1.402-6.206-0.248-8.909,0.492
				c-2.613,0.715-4.746,4.045-7.646,4.045c-2.901,0-5.617-3.33-8.355-4.045c-2.833-0.74-6.449,0.91-8.995-0.492
				c-2.583-1.422-3.383-5.518-5.553-7.513c-2.17-1.995-6.303-2.438-7.941-4.896c-1.614-2.423-0.293-6.184-1.275-8.952
				c-0.949-2.675-4.492-5.1-4.745-8c-0.254-2.901,2.864-5.325,3.345-8.001c0.498-2.768-1.481-6.529-0.291-8.952
				c1.207-2.458,5.264-2.901,7.084-4.896c1.821-1.995,1.905-6.09,4.239-7.513c2.301-1.402,6.206,0.248,8.909-0.492
				c2.613-0.715,4.746-4.045,7.646-4.045c2.901,0,5.617,3.33,8.355,4.045c2.833,0.74,6.449-0.91,8.996,0.492
				c2.583,1.422,3.383,5.517,5.553,7.513c2.17,1.995,6.303,2.438,7.941,4.896c1.614,2.423,0.293,6.184,1.275,8.952
				C519.812,285.702,523.354,288.127,523.608,291.027z"/>
		</g>
		<path style="fill:#E79700;" d="M523.574,381.385h-51.918c-1.48,0-2.784-1.2-2.914-2.679v0c-0.13-1.48,0.965-2.679,2.445-2.679
			h51.918c1.48,0,2.784,1.2,2.914,2.679v0C526.148,380.185,525.053,381.385,523.574,381.385z"/>
		<path style="fill:#E79700;" d="M524.568,392.742h-51.918c-1.48,0-2.784-1.199-2.914-2.679l0,0
			c-0.129-1.48,0.965-2.679,2.445-2.679h51.918c1.48,0,2.784,1.199,2.914,2.679l0,0
			C527.142,391.543,526.047,392.742,524.568,392.742z"/>
		<path style="fill:#E79700;" d="M515.561,404.1h-31.918c-1.48,0-2.784-1.2-2.914-2.679l0,0c-0.129-1.48,0.965-2.679,2.445-2.679
			h31.918c1.48,0,2.784,1.2,2.914,2.679l0,0C518.135,402.901,517.041,404.1,515.561,404.1z"/>
	</g>
	<polygon style="fill:#FFD600;" points="173.264,164.493 169.787,161.843 166.31,164.493 166.31,154.774 173.264,154.774 	"/>
	<path style="fill:#FFFFFF;" d="M176.284,153.8c0,0.567-0.729,1.031-0.869,1.555c-0.145,0.541,0.25,1.307-0.024,1.781
		c-0.278,0.481-1.141,0.52-1.532,0.91c-0.39,0.39-0.429,1.253-0.91,1.532c-0.474,0.274-1.24-0.121-1.781,0.024
		c-0.523,0.14-0.987,0.869-1.555,0.869s-1.031-0.729-1.555-0.869c-0.541-0.145-1.307,0.25-1.781-0.024
		c-0.481-0.278-0.52-1.141-0.91-1.532c-0.39-0.39-1.253-0.429-1.532-0.91c-0.274-0.474,0.121-1.24-0.024-1.781
		c-0.14-0.523-0.869-0.987-0.869-1.555s0.729-1.031,0.869-1.555c0.145-0.541-0.251-1.307,0.024-1.781
		c0.278-0.481,1.141-0.52,1.532-0.91c0.39-0.39,0.429-1.253,0.91-1.532c0.474-0.274,1.24,0.121,1.781-0.024
		c0.523-0.14,0.987-0.869,1.555-0.869s1.032,0.729,1.555,0.869c0.541,0.145,1.307-0.251,1.781,0.024
		c0.481,0.278,0.52,1.141,0.91,1.532c0.39,0.39,1.253,0.429,1.532,0.91c0.274,0.474-0.121,1.24,0.024,1.781
		C175.555,152.769,176.284,153.233,176.284,153.8z"/>
	<g>
		<path style="fill:#FFFFFF;" d="M653.923,127.047c0-14.047-11.387-25.434-25.434-25.434c-14.047,0-25.434,11.387-25.434,25.434
			c0,13.028,9.798,23.762,22.426,25.251l1.322,8.215l2.948-8.064C643.212,151.79,653.923,140.67,653.923,127.047z"/>
		<g>
			<g>
				
					<rect x="617.368" y="115.472" transform="matrix(0.7071 -0.7071 0.7071 0.7071 98.3515 477.6914)" style="fill:#51408A;" width="16.871" height="9.304"/>
				<path style="fill:#51408A;" d="M630.18,122.327l-2.173,2.173l9.801,9.801c0.6,0.6,1.573,0.6,2.173,0l0,0
					c0.6-0.6,0.6-1.573,0-2.173L630.18,122.327z"/>
				<path style="fill:#222739;" d="M632.187,124.335l-2.008-2.008l-2.173,2.173l1.989,1.989
					C630.721,125.766,631.452,125.048,632.187,124.335z"/>
			</g>
			<g>
				<path style="fill:#FFD600;" d="M635.609,138.766h-14.238v-0.143c0-1.278,1.036-2.314,2.315-2.314h9.609
					c1.278,0,2.315,1.036,2.315,2.314V138.766z"/>
				<path style="fill:#FFB600;" d="M638.733,141.224h-20.486v-0.216c0-1.238,1.004-2.242,2.242-2.242h16.003
					c1.238,0,2.242,1.004,2.242,2.242V141.224z"/>
			</g>
		</g>
	</g>
	<g>
		<path style="fill:#222739;" d="M665.196,425.921H84.804c-0.829,0-1.5-0.672-1.5-1.5s0.671-1.5,1.5-1.5h580.393
			c0.828,0,1.5,0.672,1.5,1.5S666.024,425.921,665.196,425.921z"/>
	</g>
	<path style="fill:#FFFFFF;" d="M616.791,177.003c-0.963,3.426-0.279,7.277,1.805,10.162c2.084,2.885,5.524,4.745,9.079,4.908
		c-0.156,1.958-0.328,3.908-0.484,5.866c1.972-2.851,3.926-6.177,4.902-9.504c0.976-3.326,0.768-7.196-1.394-9.906
		c-1.943-2.436-5.137-3.562-8.24-3.846c-1.268-0.116-2.593-0.102-3.754,0.422C617.546,175.631,617.136,175.777,616.791,177.003z"/>
	<g>
		<path style="fill:#CAE9EF;" d="M133.238,333.701c4.149-4.559-2.662-13.162-7.223-8.541
			C121.709,329.522,128.138,339.304,133.238,333.701z"/>
		<path style="fill:#CAE9EF;" d="M127.095,312.932c1.351-0.341,2.989,0.315,3.449,1.716c0.451,1.371-0.366,3.028-1.728,3.506
			c-1.362,0.478-3.035-0.306-3.54-1.658c-0.303-0.811-0.15-1.728,0.292-2.457C125.927,313.448,126.481,313.087,127.095,312.932z"/>
		<path style="fill:#CAE9EF;" d="M97.658,288.603c-0.103,2.051,1.084,3.994,2.651,5.321c1.105,0.936,2.536,1.655,3.962,1.405
			c1.653-0.29,2.879-1.896,3.037-3.567c0.184-1.937-0.757-3.799-2.122-5.121c-1.197-1.16-3.318-2.561-5.035-1.756
			C98.734,285.551,97.737,287.033,97.658,288.603z"/>
		<path style="fill:#CAE9EF;" d="M127.816,255.867c-0.184,1.176,0.457,2.379,1.411,3.09c0.654,0.488,1.486,0.783,2.292,0.655
			c0.978-0.155,1.802-0.95,2.071-1.903c0.269-0.953,0.006-2.02-0.611-2.795C131.549,253.12,128.231,253.217,127.816,255.867z"/>
		<path style="fill:#CAE9EF;" d="M121.126,248.241c-1.382-2.042-3.38-3.704-5.455-5.092c-1.393-0.932-2.895-1.762-4.541-2.08
			c-1.646-0.317-3.465-0.063-4.77,0.989c-1.432,1.155-2.043,3.141-1.8,4.964c0.244,1.824,1.25,3.482,2.548,4.786
			s2.877,2.29,4.48,3.193c1.717,0.967,3.527,1.868,5.484,2.104c2.705,0.325,6.207-0.856,5.858-4.079
			C122.736,251.228,122.076,249.645,121.126,248.241z"/>
		<path style="fill:#CAE9EF;" d="M180.244,305.416c1.463,0.619,3.245,0.272,4.474-0.735c0.643-0.527,1.16-1.245,1.307-2.064
			c0.493-2.73-3.19-5.377-5.583-3.989C177.774,300.177,176.883,303.993,180.244,305.416z"/>
		<path style="fill:#CAE9EF;" d="M117.774,397.979c2.296,1.96,5.77,2.447,8.483,1.122c2.713-1.325,4.473-4.421,4.145-7.422
			c-0.286-2.626-2.081-4.978-4.435-6.177c-3.181-1.62-6.912-1.58-9.204,1.253C114.054,390.104,114.439,395.132,117.774,397.979z"/>
		<path style="fill:#CAE9EF;" d="M110.271,377.383c-1.17,0.2-2.232,0.939-2.645,2.263c-0.619,1.989,0.945,4.348,3.018,4.552
			c2.073,0.204,4.066-1.806,3.846-3.878C114.254,378.107,112.127,377.067,110.271,377.383z"/>
		<path style="fill:#CAE9EF;" d="M178.566,115.49c7.972,0.597,5.629-10.536-0.574-11.802
			C170.708,102.201,171.728,114.978,178.566,115.49z"/>
		<path style="fill:#CAE9EF;" d="M162.667,75.273c-2.438,0.932-3.968,3.502-4.295,6.092s0.359,5.201,1.249,7.654
			c0.876,2.416,1.99,4.811,3.79,6.646c1.8,1.835,4.395,3.042,6.935,2.649c2.946-0.455,5.291-3.047,5.955-5.953
			c0.664-2.906-0.158-6.008-1.72-8.547C172.534,80.489,167.241,73.524,162.667,75.273z"/>
		<path style="fill:#CAE9EF;" d="M481.736,222.088c-0.26,4.119,3.269,8.086,7.388,8.348c4.118,0.263,8.107-3.185,8.484-7.294
			C498.586,212.471,482.373,211.992,481.736,222.088z"/>
		<path style="fill:#CAE9EF;" d="M508.283,211.238c2.151,1.04,3.669,3.371,2.501,6.14c-0.972,2.305-3.877,3.582-6.233,2.738
			c-2.355-0.843-3.79-3.672-3.079-6.071C502.508,210.549,505.813,210.043,508.283,211.238z"/>
		<path style="fill:#CAE9EF;" d="M591.788,146.733c-0.864,2.294-0.085,5.089,1.805,6.65c1.89,1.561,4.742,1.808,6.901,0.648
			c2.159-1.16,3.52-3.636,3.403-6.084C603.56,140.917,593.996,140.873,591.788,146.733z"/>
		<path style="fill:#CAE9EF;" d="M528.003,91.828c-2.047,3.33-1.652,8.187,1.387,10.646c2.319,1.877,5.739,2.067,8.462,0.849
			c3.209-1.435,5.495-4.741,5.706-8.25c0.196-3.268-1.751-8.414-5.515-8.737C534.423,86.026,529.823,88.87,528.003,91.828z"/>
		<path style="fill:#CAE9EF;" d="M564.248,282.251c-1.579,1.837-2.324,4.442-1.673,6.776c0.652,2.333,2.806,4.246,5.227,4.35
			c1.841,0.079,3.608-0.828,4.988-2.05c2.094-1.855,3.506-4.654,3.132-7.426C575.029,277.297,567.64,278.305,564.248,282.251z"/>
		<path style="fill:#CAE9EF;" d="M555.408,299.538c0.931,0.983,2.543,1.078,3.766,0.497c2.87-1.365,3.56-6.773-0.159-7.496
			C555.604,291.877,553.129,297.133,555.408,299.538z"/>
		<path style="fill:#CAE9EF;" d="M647.471,307.973c-1.137,2.986,0.465,6.732,3.41,7.972c2.945,1.24,6.744-0.232,8.085-3.132
			C662.539,305.086,650.484,300.064,647.471,307.973z"/>
		<path style="fill:#CAE9EF;" d="M646.222,337.701c-0.245,2.659,1.952,5.302,4.611,5.548c2.659,0.246,5.303-1.949,5.55-4.608
			C657.019,331.805,646.829,331.098,646.222,337.701z"/>
		<path style="fill:#CAE9EF;" d="M644.897,318.3c0.529,0.083,1.062,0.265,1.561,0.546c3.243,1.826,1.068,6.351-2.385,5.937
			c-1.852-0.222-3.325-2.164-2.998-4C641.419,318.846,643.14,318.025,644.897,318.3z"/>
	</g>
	<g>
		<g>
			<path style="fill:#222739;" d="M154.795,154.978h1.37c1.657,0,3-1.343,3-3v-6.605
				C156.686,147.882,155.077,151.244,154.795,154.978z"/>
			<path style="fill:#FFFFFF;" d="M104.257,153.104h53.782c1.657,0,3-1.343,3-3v-41.376h-59.782v41.376
				C101.257,151.761,102.6,153.104,104.257,153.104z"/>
			<path style="fill:#222739;" d="M101.257,103.385v5.343h59.782v-5.343c0-1.657-1.343-3-3-3h-53.782
				C102.6,100.385,101.257,101.728,101.257,103.385z"/>
		</g>
		<g>
			<g>
				<path style="fill:#E79700;" d="M131.339,146.739c-0.414,0-0.75-0.336-0.75-0.75v-30.519c0-0.414,0.336-0.75,0.75-0.75
					c0.414,0,0.75,0.336,0.75,0.75v30.519C132.089,146.403,131.753,146.739,131.339,146.739z"/>
			</g>
			<g>
				<path style="fill:#E79700;" d="M142.407,146.739h-22.517c-0.414,0-0.75-0.336-0.75-0.75c0-0.414,0.336-0.75,0.75-0.75h22.517
					c0.414,0,0.75,0.336,0.75,0.75C143.157,146.403,142.821,146.739,142.407,146.739z"/>
			</g>
			<g>
				<path style="fill:#FFB600;" d="M146.9,116.221h-31.504c-0.414,0-0.75-0.336-0.75-0.75s0.336-0.75,0.75-0.75H146.9
					c0.414,0,0.75,0.336,0.75,0.75S147.314,116.221,146.9,116.221z"/>
			</g>
			<g>
				<path style="fill:#FFB600;" d="M125.503,134.093c-0.314,0-0.607-0.199-0.711-0.513l-5.958-17.872
					c-0.131-0.393,0.081-0.818,0.474-0.949c0.392-0.132,0.818,0.082,0.949,0.474l5.958,17.872c0.131,0.393-0.081,0.818-0.474,0.949
					C125.662,134.081,125.582,134.093,125.503,134.093z"/>
			</g>
			<g>
				<path style="fill:#FFB600;" d="M136.793,134.093c-0.079,0-0.159-0.012-0.237-0.039c-0.393-0.131-0.605-0.556-0.474-0.949
					l5.957-17.872c0.13-0.393,0.554-0.608,0.949-0.474c0.393,0.131,0.605,0.556,0.474,0.949l-5.957,17.872
					C137.4,133.894,137.107,134.093,136.793,134.093z"/>
			</g>
			<g>
				<path style="fill:#FFB600;" d="M113.589,134.093c-0.079,0-0.159-0.012-0.237-0.039c-0.393-0.131-0.605-0.556-0.474-0.949
					l5.957-17.872c0.13-0.393,0.555-0.608,0.949-0.474c0.393,0.131,0.605,0.556,0.474,0.949L114.3,133.58
					C114.196,133.894,113.903,134.093,113.589,134.093z"/>
			</g>
			<g>
				<path style="fill:#FFB600;" d="M126.87,133.343c-0.586,2.441-2.77,4.163-5.281,4.163h-2.043h-2.043
					c-2.511,0-4.695-1.721-5.281-4.163l0,0H126.87L126.87,133.343z"/>
				<path style="fill:#FFB600;" d="M121.589,138.255h-4.086c-2.869,0-5.34-1.948-6.011-4.737c-0.053-0.224-0.002-0.459,0.141-0.64
					c0.142-0.18,0.359-0.286,0.589-0.286h14.648c0.229,0,0.447,0.105,0.589,0.286c0.143,0.181,0.194,0.416,0.141,0.64
					C126.929,136.307,124.458,138.255,121.589,138.255z M113.278,134.093c0.763,1.605,2.387,2.663,4.226,2.663h4.086
					c1.839,0,3.462-1.057,4.226-2.663H113.278z"/>
			</g>
			<g>
				<path style="fill:#FFB600;" d="M148.707,134.093c-0.314,0-0.607-0.199-0.711-0.513l-5.957-17.872
					c-0.131-0.393,0.082-0.818,0.474-0.949c0.394-0.132,0.818,0.082,0.949,0.474l5.957,17.872c0.131,0.393-0.082,0.818-0.474,0.949
					C148.866,134.081,148.786,134.093,148.707,134.093z"/>
			</g>
			<g>
				<path style="fill:#FFB600;" d="M135.426,133.343c0.586,2.441,2.77,4.163,5.281,4.163h2.043h2.043
					c2.511,0,4.695-1.721,5.281-4.163l0,0H135.426L135.426,133.343z"/>
				<path style="fill:#FFB600;" d="M144.793,138.255h-4.086c-2.869,0-5.34-1.948-6.011-4.737c-0.053-0.224-0.002-0.459,0.141-0.64
					c0.142-0.18,0.359-0.286,0.589-0.286h14.648c0.23,0,0.447,0.105,0.589,0.286c0.143,0.181,0.194,0.416,0.141,0.64
					C150.133,136.307,147.662,138.255,144.793,138.255z M136.481,134.093c0.763,1.605,2.387,2.663,4.226,2.663h4.086
					c1.839,0,3.462-1.057,4.226-2.663H136.481z"/>
			</g>
		</g>
		<circle style="fill:#FFB600;" cx="106.128" cy="104.293" r="1.5"/>
		<path style="fill:#A0C3FA;" d="M113.078,104.293c0,0.828-0.672,1.5-1.5,1.5c-0.828,0-1.5-0.672-1.5-1.5s0.672-1.5,1.5-1.5
			C112.406,102.793,113.078,103.465,113.078,104.293z"/>
		<circle style="fill:#FFFFFF;" cx="117.028" cy="104.293" r="1.5"/>
	</g>
	<g>
		
			<ellipse transform="matrix(0.8959 -0.4442 0.4442 0.8959 -8.191 241.2005)" style="fill:#FFFFFF;" cx="510.623" cy="138.08" rx="30.802" ry="30.802"/>
		<g>
			<path style="fill:#51408A;" d="M499.312,153.219h22.643c1.105,0,2-0.895,2-2v-12.837h-26.643v12.837
				C497.312,152.324,498.207,153.219,499.312,153.219z"/>
			<g>
				<rect x="497.312" y="133.934" style="fill:#514072;" width="26.643" height="4.448"/>
				<path style="fill:#FFB600;" d="M503.814,133.934l4.759,4.448h-2.31l-4.759-4.448H503.814z M497.312,133.934v0.802l3.902,3.646
					h2.31l-4.76-4.448H497.312z M523.955,133.934h-2.248l2.248,2.1V133.934z M511.606,133.934l4.759,4.448h2.31l-4.76-4.448H511.606
					z M506.556,133.934l4.76,4.448h2.309l-4.759-4.448H506.556z M516.657,133.934l4.76,4.448h2.31l-4.76-4.448H516.657z"/>
			</g>
			<g>
				
					<rect x="494.619" y="123.377" transform="matrix(0.8778 -0.479 0.479 0.8778 1.9007 258.653)" style="fill:#514072;" width="26.643" height="4.448"/>
				<path style="fill:#FFB600;" d="M500.993,131.926l2.048-6.184l2.027-1.106l-2.047,6.184L500.993,131.926z M498.586,133.239
					l2.048-6.184l-2.027,1.106l-1.678,5.069l0.384,0.704L498.586,133.239z M519.694,119.328l-0.967,2.921l1.973-1.077
					L519.694,119.328z M511.887,125.981l2.047-6.184l-2.027,1.106l-2.048,6.184L511.887,125.981z M507.453,128.4l2.048-6.184
					l-2.027,1.106l-2.048,6.184L507.453,128.4z M516.321,123.562l2.047-6.184l-2.027,1.106l-2.047,6.184L516.321,123.562z"/>
			</g>
			<polygon style="fill:#FFFFFF;" points="508.876,149.566 508.876,141.965 513.712,145.765 			"/>
		</g>
	</g>
	<g>
		<g>
			<path style="fill:#CAE9EF;" d="M506.668,182.902H476.46c-0.553,0-1-0.448-1-1c0-0.552,0.447-1,1-1h30.208c0.553,0,1,0.448,1,1
				C507.668,182.455,507.221,182.902,506.668,182.902z"/>
		</g>
		<g>
			<path style="fill:#CAE9EF;" d="M577.82,152.404c-0.553,0-1-0.448-1-1v-18.297c0-0.552,0.447-1,1-1c0.553,0,1,0.448,1,1v18.297
				C578.82,151.956,578.373,152.404,577.82,152.404z"/>
		</g>
		<g>
			<path style="fill:#CAE9EF;" d="M131.57,169.881c-0.552,0-1-0.448-1-1v-11.288c0-0.552,0.448-1,1-1c0.552,0,1,0.448,1,1v11.288
				C132.57,169.434,132.123,169.881,131.57,169.881z"/>
		</g>
		<g>
			<path style="fill:#CAE9EF;" d="M186.069,210.763h-14.342c-0.552,0-1-0.448-1-1c0-0.552,0.448-1,1-1h14.342c0.552,0,1,0.448,1,1
				C187.069,210.315,186.622,210.763,186.069,210.763z"/>
		</g>
	</g>
</g>
</svg>
